nColumns=19
nRows=49
DataType=double
version=3
OpenSimVersion=4.1
endheader
time	ground_force_calcn_l_vx	ground_force_calcn_l_vy	ground_force_calcn_l_vz	ground_force_calcn_l_px	ground_force_calcn_l_py	ground_force_calcn_l_pz	ground_force_calcn_l_mx	ground_force_calcn_l_my	ground_force_calcn_l_mz	ground_force_calcn_r_vx	ground_force_calcn_r_vy	ground_force_calcn_r_vz	ground_force_calcn_r_px	ground_force_calcn_r_py	ground_force_calcn_r_pz	ground_force_calcn_r_mx	ground_force_calcn_r_my	ground_force_calcn_r_mz
1.23752	-4.67887	359.668	-2.71674	-0.228317	-2.53443e-17	0.183269	0.0223398	-1.71728	0.0129714	3.92397	358.501	2.23829	-0.210144	-2.33215e-17	-0.154235	0.051996	4.75045	0.0296593
1.24749	-4.71749	359.679	-2.67764	-0.228013	-2.53103e-17	0.183491	0.0239034	-1.82248	0.0135675	4.10928	360.356	2.10657	-0.209824	-2.32864e-17	-0.154252	0.0553067	4.85003	0.0283523
1.25747	-4.79297	359.79	-2.49524	-0.227649	-2.527e-17	0.183705	0.0255501	-1.91794	0.0133015	4.11626	361.919	1.94199	-0.209501	-2.32512e-17	-0.154269	0.0558755	4.91281	0.0263612
1.26745	-4.87565	360.033	-2.17348	-0.227213	-2.5222e-17	0.183933	0.0270249	-1.9956	0.0120472	3.91211	363.093	1.70061	-0.209177	-2.32162e-17	-0.154275	0.0532597	4.94317	0.0231523
1.27743	-4.95221	360.413	-1.71799	-0.2267	-2.51657e-17	0.184191	0.0283627	-2.06419	0.00983942	3.48974	363.822	1.34998	-0.208837	-2.31799e-17	-0.154247	0.0473856	4.94018	0.0183307
1.28741	-5.00477	360.885	-1.13515	-0.226124	-2.51028e-17	0.184473	0.0295127	-2.12811	0.00669388	2.87488	364.072	0.869838	-0.208462	-2.31403e-17	-0.154152	0.0387048	4.90154	0.0117107
1.29739	-5.03854	361.424	-0.437911	-0.225529	-2.50379e-17	0.184767	0.0304505	-2.18427	0.00264652	2.08858	363.838	0.258837	-0.208079	-2.31004e-17	-0.153981	0.0277463	4.83351	0.00343859
1.30737	-5.08846	362.036	0.377305	-0.224942	-2.49743e-17	0.185075	0.0314582	-2.2382	-0.00233259	1.15684	363.169	-0.480029	-0.207703	-2.30615e-17	-0.153733	0.015113	4.74443	-0.00627107
1.31735	-5.17485	362.734	1.29379	-0.224351	-2.49105e-17	0.185391	0.0326677	-2.28986	-0.00816741	0.120666	362.162	-1.33726	-0.207329	-2.30234e-17	-0.153415	0.00154508	4.63732	-0.017123
1.32733	-5.31948	363.508	2.28769	-0.223727	-2.48431e-17	0.185695	0.0340765	-2.32863	-0.0146549	-0.966831	360.957	-2.29051	-0.206919	-2.29815e-17	-0.153035	-0.0121156	4.52323	-0.0287029
1.33731	-5.5365	364.325	3.34842	-0.223074	-2.47728e-17	0.185985	0.0358266	-2.35754	-0.0216675	-2.07877	359.72	-3.3084	-0.20646	-2.29342e-17	-0.152611	-0.0255316	4.41811	-0.0406341
1.34729	-5.83926	365.142	4.45332	-0.222443	-2.47049e-17	0.186239	0.0382215	-2.39008	-0.0291496	-3.17939	358.573	-4.36576	-0.205979	-2.28845e-17	-0.15216	-0.0383022	4.31973	-0.0525943
1.35727	-6.20641	365.94	5.56645	-0.221842	-2.46406e-17	0.186437	0.0411747	-2.42773	-0.036929	-4.22517	357.62	-5.45102	-0.205491	-2.2834e-17	-0.15168	-0.0498448	4.21887	-0.0643062
1.36725	-6.63112	366.726	6.64109	-0.221239	-2.4576e-17	0.186547	0.0444851	-2.4602	-0.044552	-5.19886	356.941	-6.56857	-0.20501	-2.27842e-17	-0.15119	-0.0600862	4.12537	-0.0759168
1.37723	-7.11417	367.521	7.65043	-0.22062	-2.45094e-17	0.18656	0.0481627	-2.48811	-0.0517931	-6.08873	356.567	-7.72715	-0.204575	-2.27396e-17	-0.150695	-0.0689808	4.03964	-0.087543
1.38721	-7.6515	368.337	8.59194	-0.21998	-2.44404e-17	0.186477	0.0520886	-2.5075	-0.0584907	-6.87015	356.472	-8.93325	-0.204199	-2.27015e-17	-0.150186	-0.0762164	3.95465	-0.0991041
1.39719	-8.2487	369.138	9.48495	-0.219335	-2.43705e-17	0.186295	0.0562772	-2.51847	-0.0647116	-7.55	356.613	-10.1808	-0.203902	-2.2672e-17	-0.14965	-0.0817069	3.85931	-0.110178
1.40717	-8.91298	369.853	10.3564	-0.218676	-2.42991e-17	0.186021	0.0606722	-2.51766	-0.0704976	-8.16666	356.958	-11.4704	-0.203717	-2.26546e-17	-0.149098	-0.0858452	3.75222	-0.120573
1.41715	-9.62771	370.391	11.2436	-0.217993	-2.42248e-17	0.185675	0.0649489	-2.49867	-0.0758498	-8.74553	357.474	-12.7901	-0.20361	-2.26457e-17	-0.148547	-0.0890388	3.63946	-0.130217
1.42713	-10.3776	370.65	12.1873	-0.217292	-2.41484e-17	0.185264	0.0686044	-2.45029	-0.080568	-9.2966	358.095	-14.1076	-0.203536	-2.26401e-17	-0.147992	-0.0913269	3.51781	-0.138589
1.43711	-11.1739	370.538	13.2229	-0.216594	-2.40721e-17	0.184804	0.0715685	-2.37329	-0.0846926	-9.83558	358.754	-15.3914	-0.203513	-2.26394e-17	-0.147441	-0.0929612	3.39077	-0.145472
1.44709	-12.0202	369.985	14.3686	-0.215925	-2.39991e-17	0.184342	0.0740415	-2.27902	-0.088507	-10.353	359.42	-16.5908	-0.203547	-2.26447e-17	-0.146903	-0.0938373	3.2577	-0.150375
1.45707	-12.9013	368.925	15.6041	-0.215302	-2.39307e-17	0.183881	0.0753389	-2.15438	-0.0911223	-10.8021	360.09	-17.68	-0.203591	-2.26504e-17	-0.146382	-0.0936761	3.12271	-0.153321
1.46705	-13.8147	367.3	16.9011	-0.214744	-2.38691e-17	0.18342	0.0750281	-1.99481	-0.0917904	-11.1564	360.756	-18.6479	-0.203623	-2.26545e-17	-0.145896	-0.0928473	3.00234	-0.155195
1.47703	-14.7846	365.102	18.2561	-0.214275	-2.38167e-17	0.182955	0.0730675	-1.80438	-0.090224	-11.3942	361.421	-19.473	-0.203636	-2.26562e-17	-0.145448	-0.0915134	2.90277	-0.156399
1.48701	-15.8244	362.362	19.6758	-0.213927	-2.37771e-17	0.182491	0.0693453	-1.58794	-0.0862233	-11.4934	362.077	-20.134	-0.20365	-2.26577e-17	-0.145034	-0.0894754	2.81876	-0.156742
1.49699	-16.9578	359.149	21.1566	-0.213727	-2.3753e-17	0.182008	0.063541	-1.34573	-0.0792739	-11.4361	362.722	-20.6212	-0.203664	-2.26591e-17	-0.14465	-0.0867011	2.74992	-0.156336
1.50697	-18.2004	355.559	22.673	-0.213675	-2.37442e-17	0.181489	0.0553755	-1.0818	-0.0689836	-11.2104	363.36	-20.9575	-0.203678	-2.26605e-17	-0.144297	-0.0834987	2.70642	-0.156098
1.51695	-19.5411	351.738	24.1911	-0.213732	-2.37464e-17	0.180939	0.0446484	-0.80367	-0.0552731	-10.7929	364.016	-21.1695	-0.203694	-2.26623e-17	-0.143964	-0.0797883	2.69105	-0.156499
1.52693	-20.9568	347.866	25.7013	-0.213868	-2.37565e-17	0.180387	0.0315546	-0.523782	-0.0386984	-10.1689	364.759	-21.291	-0.203712	-2.26647e-17	-0.143643	-0.0754144	2.70512	-0.157898
1.53691	-22.4142	344.131	27.1814	-0.2141	-2.37765e-17	0.179865	0.0168705	-0.259018	-0.0204587	-9.35699	365.691	-21.3463	-0.203728	-2.26671e-17	-0.143345	-0.0704331	2.75267	-0.16068
1.54689	-23.8889	340.747	28.6044	-0.214482	-2.38131e-17	0.179405	0.00199362	-0.0284366	-0.00238714	-8.37814	366.957	-21.3596	-0.203719	-2.26674e-17	-0.14308	-0.0648632	2.84097	-0.165365
1.55687	-25.3134	337.96	29.9461	-0.215004	-2.38653e-17	0.179065	-0.012603	0.168263	0.0149095	-7.24261	368.703	-21.3453	-0.203671	-2.26639e-17	-0.142853	-0.0584305	2.97455	-0.172205
1.56685	-26.6189	336.005	31.1821	-0.215614	-2.39275e-17	0.17888	-0.0270092	0.340932	0.0316393	-5.96619	371.051	-21.3084	-0.203555	-2.26534e-17	-0.142656	-0.0506877	3.15239	-0.181032
1.57683	-27.7345	335.049	32.2974	-0.216316	-2.40002e-17	0.178886	-0.0404328	0.488452	0.0470848	-4.57805	374.092	-21.2425	-0.203363	-2.26345e-17	-0.142481	-0.0411566	3.36308	-0.190969
1.58681	-28.5749	335.176	33.2856	-0.217156	-2.40889e-17	0.179123	-0.0524505	0.61523	0.0610973	-3.11816	377.827	-21.1607	-0.203125	-2.26105e-17	-0.142314	-0.0296622	3.59417	-0.201295
1.59679	-29.0718	336.379	34.1377	-0.218157	-2.41954e-17	0.179594	-0.0640871	0.741529	0.0752546	-1.63524	382.208	-21.0981	-0.20289	-2.25868e-17	-0.142142	-0.0164139	3.83645	-0.211774
1.60677	-29.1811	338.549	34.8532	-0.219275	-2.4315e-17	0.180329	-0.0752027	0.872474	0.0898202	-0.19999	387.093	-21.0896	-0.202674	-2.25653e-17	-0.141958	-0.00211394	4.09167	-0.222922
1.61675	-28.879	341.448	35.419	-0.220477	-2.44436e-17	0.181318	-0.0857307	1.01363	0.105145	1.13469	392.273	-21.1573	-0.202472	-2.25451e-17	-0.141749	0.0125524	4.33949	-0.234051
1.62673	-28.1705	344.77	35.8201	-0.221775	-2.4583e-17	0.182526	-0.0951889	1.16499	0.121037	2.32883	397.489	-21.3052	-0.202287	-2.25267e-17	-0.141514	0.026752	4.56607	-0.244739
1.63671	-27.0859	348.218	36.0624	-0.223191	-2.47355e-17	0.183929	-0.102898	1.32287	0.137	3.33219	402.457	-21.5336	-0.202142	-2.25127e-17	-0.141265	0.0395161	4.77269	-0.255364
1.64669	-25.686	351.523	36.1394	-0.224702	-2.48986e-17	0.185483	-0.108639	1.48678	0.152852	4.12691	406.86	-21.8429	-0.202064	-2.25062e-17	-0.141001	0.0502327	4.9523	-0.265872
1.65667	-24.0258	354.458	36.0329	-0.226245	-2.50658e-17	0.187145	-0.111844	1.65006	0.167738	4.71884	410.403	-22.2213	-0.202045	-2.25062e-17	-0.140725	0.0586483	5.10072	-0.276179
1.66665	-22.165	356.855	35.7364	-0.227786	-2.52329e-17	0.188862	-0.112498	1.81122	0.18138	5.11331	412.845	-22.6539	-0.202063	-2.25105e-17	-0.140442	0.0645766	5.21386	-0.286099
1.67663	-20.1476	358.615	35.256	-0.229329	-2.54011e-17	0.190596	-0.109945	1.95695	0.192392	5.31332	414.02	-23.1286	-0.202127	-2.25198e-17	-0.14015	0.0678691	5.28845	-0.295431
1.68661	-18.0065	359.682	34.6024	-0.23087	-2.55702e-17	0.192323	-0.103711	2.07164	0.199297	5.32698	413.856	-23.6422	-0.202261	-2.2537e-17	-0.139842	0.0685138	5.32288	-0.304079
1.69659	-15.7758	360.067	33.8014	-0.232358	-2.57347e-17	0.194015	-0.0942508	2.15119	0.201943	5.155	412.399	-24.1859	-0.202433	-2.25584e-17	-0.139511	0.0663653	5.30921	-0.311369
1.70657	-13.4952	359.849	32.8831	-0.233733	-2.58878e-17	0.195641	-0.0821041	2.1893	0.200059	4.78846	409.801	-24.766	-0.202583	-2.25771e-17	-0.13917	0.0613284	5.24854	-0.317191
1.71655	-11.1924	359.155	31.8742	-0.23495	-2.60249e-17	0.197188	-0.0679035	2.17896	0.193378	4.22861	406.272	-25.3808	-0.202719	-2.25942e-17	-0.138829	0.0535411	5.14407	-0.321362
